<?xml version="1.0" standalone="no"?>
<!DOCTYPE svg PUBLIC "-//W3C//DTD SVG 20010904//EN"
 "http://www.w3.org/TR/2001/REC-SVG-20010904/DTD/svg10.dtd">
<svg version="1.0" xmlns="http://www.w3.org/2000/svg"
 width="512.000000pt" height="512.000000pt" viewBox="0 0 512.000000 512.000000"
 preserveAspectRatio="xMidYMid meet">
<metadata>
Created by potrace 1.14, written by Peter Selinger 2001-2017
</metadata>
<g transform="translate(0.000000,512.000000) scale(0.100000,-0.100000)"
fill="#000000" stroke="none">
<path d="M273 3742 c-21 -3 -23 -9 -23 -66 l0 -63 48 3 c26 1 50 3 54 3 4 1 6
29 5 63 -2 61 -2 61 -32 62 -16 1 -40 0 -52 -2z"/>
<path d="M577 3735 c-2 -5 -3 -68 -3 -140 l1 -130 877 -2 c975 -2 950 0 1054
-69 95 -63 153 -166 161 -284 14 -200 -110 -364 -302 -399 -28 -5 -427 -9
-900 -9 -467 -1 -859 -1 -870 -1 -19 -1 -20 -8 -21 -156 l0 -155 883 0 c863 0
885 0 944 -20 115 -39 184 -98 233 -200 28 -59 31 -74 31 -160 0 -81 -4 -102
-24 -140 -35 -67 -85 -124 -138 -159 -97 -64 -64 -62 -1040 -64 l-888 -2 0
-137 c0 -86 3 -139 10 -141 20 -6 1801 0 1835 7 239 46 426 213 506 451 22 67
27 98 27 190 1 192 -53 319 -206 488 l-43 48 68 71 c145 149 206 352 176 578
-35 255 -260 483 -528 536 -59 12 -1839 11 -1843 -1z"/>
<path d="M2874 3741 c-2 -2 19 -26 47 -54 121 -120 209 -299 234 -479 6 -38
17 -57 59 -101 89 -95 407 -426 523 -546 l113 -116 81 85 c99 103 384 403 419
440 14 15 55 59 93 97 l67 71 0 -884 0 -884 48 -1 c79 0 336 -1 352 0 14 1 15
132 14 1179 -1 647 -2 1182 -3 1187 -1 6 -71 9 -194 8 l-194 -2 -84 -87 c-204
-211 -281 -289 -436 -447 l-164 -168 -23 23 c-12 13 -57 61 -101 108 -43 47
-111 119 -149 160 -39 42 -117 125 -172 185 -56 61 -126 136 -156 168 l-54 58
-158 2 c-87 1 -159 0 -162 -2z"/>
<path d="M215 3592 c-3 -3 -5 -45 -5 -94 0 -87 0 -88 25 -88 25 0 26 1 23 68
l-3 67 48 1 47 0 2 -70 c0 -39 1 -78 0 -86 -2 -36 -12 -386 -13 -502 -2 -105
-5 -130 -19 -143 -14 -13 -19 -13 -35 -1 -20 14 -20 32 -25 513 -1 96 -5 133
-14 136 -36 14 -37 4 -37 -659 0 -357 2 -667 5 -689 2 -22 8 -89 11 -150 4
-60 9 -117 10 -127 2 -10 6 -46 10 -81 7 -84 33 -255 44 -292 l8 -30 11 25
c11 26 37 166 47 260 4 30 8 66 10 80 4 27 11 104 21 220 4 41 8 382 9 758 2
568 0 682 -11 682 -17 0 -18 17 -1 22 8 3 12 32 13 91 1 85 1 86 -25 91 -33 7
-149 5 -156 -2z"/>
<path d="M276 3333 c7 -591 7 -604 35 -576 5 5 12 169 15 364 3 195 7 366 9
382 3 25 0 27 -29 27 l-32 0 2 -197z"/>
<path d="M604 3222 l-30 -3 0 -137 1 -137 881 -3 880 -2 42 27 c44 29 62 63
62 120 0 43 -33 109 -62 124 -17 9 -236 12 -883 13 -473 1 -874 0 -891 -2z"/>
<path d="M592 2159 c-15 -5 -17 -23 -17 -142 l-1 -137 26 -1 c14 0 408 -1 875
-1 793 -1 853 0 887 16 86 41 106 168 35 227 -50 41 -57 42 -939 43 -467 1
-856 -2 -866 -5z"/>
</g>
</svg>
